<!DOCTYPE svg PUBLIC "-//W3C//DTD SVG 1.1//EN" "http://www.w3.org/Graphics/SVG/1.1/DTD/svg11.dtd">
<!-- Uploaded to: SVG Repo, www.svgrepo.com, Transformed by: SVG Repo Mixer Tools -->
<svg fill="#d22a2a" width="800px" height="800px" viewBox="0 0 32 32" version="1.1" xmlns="http://www.w3.org/2000/svg">
<g id="SVGRepo_bgCarrier" stroke-width="0"/>
<g id="SVGRepo_tracerCarrier" stroke-linecap="round" stroke-linejoin="round"/>
<g id="SVGRepo_iconCarrier"> <title>chart3</title> <path d="M3.987 4h-0.987v24h26v-0.963l-24.996-0.050-0.017-22.987zM17 5c0-0.553-0.448-1-1-1h-3c-0.553 0-1 0.447-1 1v20h5v-20zM11 11c0-0.552-0.448-1-1-1h-3c-0.553 0-1 0.448-1 1v14h5v-14zM23 17c0-0.553-0.448-1-1-1h-3c-0.553 0-1 0.447-1 1v8h5v-8zM28 22h-3c-0.553 0-1 0.447-1 1v2h5v-2c0-0.553-0.448-1-1-1z"/> </g>
</svg>